<svg width="4.376099" height="8.125977" viewBox="0 0 4.3761 8.12598" fill="none" xmlns="http://www.w3.org/2000/svg" xmlns:xlink="http://www.w3.org/1999/xlink">
	<desc>
			Created with Pixso.
	</desc>
	<defs/>
	<path id="Vector" d="M0.09 0.09C0.12 0.06 0.15 0.03 0.19 0.02C0.23 0 0.27 0 0.31 0C0.35 0 0.39 0 0.43 0.02C0.47 0.03 0.5 0.06 0.53 0.09L4.28 3.84C4.31 3.87 4.33 3.9 4.35 3.94C4.36 3.98 4.37 4.02 4.37 4.06C4.37 4.1 4.36 4.14 4.35 4.18C4.33 4.22 4.31 4.25 4.28 4.28L0.53 8.03C0.47 8.09 0.39 8.12 0.31 8.12C0.23 8.12 0.15 8.09 0.09 8.03C0.03 7.97 0 7.89 0 7.81C0 7.72 0.03 7.65 0.09 7.59L3.62 4.06L0.09 0.53C0.06 0.5 0.03 0.47 0.02 0.43C0 0.39 0 0.35 0 0.31C0 0.27 0 0.23 0.02 0.19C0.03 0.15 0.06 0.12 0.09 0.09Z" fill="#000000" fill-opacity="1.000000" fill-rule="evenodd"/>
</svg>
