<svg width="26.000000" height="26.000000" viewBox="0 0 26 26" fill="none" xmlns="http://www.w3.org/2000/svg" xmlns:xlink="http://www.w3.org/1999/xlink">
	<desc>
			Created with Pixso.
	</desc>
	<defs>
		<clipPath id="clip2_465">
			<rect id="Cart" rx="-0.500000" width="25.000000" height="25.000000" transform="translate(0.500000 0.500000)" fill="white" fill-opacity="0"/>
		</clipPath>
	</defs>
	<rect id="Cart" rx="-0.500000" width="25.000000" height="25.000000" transform="translate(0.500000 0.500000)" fill="#FFFFFF" fill-opacity="0"/>
	<g clip-path="url(#clip2_465)">
		<path id="Vector" d="M0 2.43C0 2.22 0.08 2.01 0.23 1.86C0.39 1.71 0.59 1.62 0.81 1.62L3.25 1.62C3.43 1.62 3.6 1.68 3.75 1.79C3.89 1.9 3.99 2.06 4.03 2.24L4.69 4.87L23.56 4.87C23.68 4.87 23.8 4.9 23.9 4.95C24.01 5 24.11 5.07 24.19 5.17C24.26 5.26 24.32 5.37 24.35 5.49C24.37 5.6 24.38 5.72 24.35 5.84L22.73 13.97C22.69 14.14 22.6 14.3 22.46 14.42C22.33 14.54 22.15 14.61 21.97 14.62L6.7 15.39L7.17 17.87L21.12 17.87C21.34 17.87 21.54 17.96 21.69 18.11C21.85 18.26 21.93 18.47 21.93 18.68C21.93 18.9 21.85 19.1 21.69 19.26C21.54 19.41 21.34 19.5 21.12 19.5L6.5 19.5C6.31 19.49 6.12 19.43 5.98 19.31C5.83 19.19 5.73 19.02 5.7 18.83L3.26 5.86L2.61 3.25L0.81 3.25C0.59 3.25 0.39 3.16 0.23 3.01C0.08 2.85 0 2.65 0 2.43ZM5.04 6.5L6.4 13.77L21.26 13.03L22.57 6.5L5.04 6.5ZM8.12 19.5C7.26 19.5 6.43 19.84 5.82 20.45C5.21 21.06 4.87 21.88 4.87 22.75C4.87 23.61 5.21 24.43 5.82 25.04C6.43 25.65 7.26 26 8.12 26C8.98 26 9.81 25.65 10.42 25.04C11.03 24.43 11.37 23.61 11.37 22.75C11.37 21.88 11.03 21.06 10.42 20.45C9.81 19.84 8.98 19.5 8.12 19.5ZM19.5 19.5C18.63 19.5 17.81 19.84 17.2 20.45C16.59 21.06 16.25 21.88 16.25 22.75C16.25 23.61 16.59 24.43 17.2 25.04C17.81 25.65 18.63 26 19.5 26C20.36 26 21.18 25.65 21.79 25.04C22.4 24.43 22.75 23.61 22.75 22.75C22.75 21.88 22.4 21.06 21.79 20.45C21.18 19.84 20.36 19.5 19.5 19.5ZM8.12 21.12C7.69 21.12 7.28 21.29 6.97 21.6C6.67 21.9 6.5 22.31 6.5 22.75C6.5 23.18 6.67 23.59 6.97 23.89C7.28 24.2 7.69 24.37 8.12 24.37C8.55 24.37 8.96 24.2 9.27 23.89C9.57 23.59 9.75 23.18 9.75 22.75C9.75 22.31 9.57 21.9 9.27 21.6C8.96 21.29 8.55 21.12 8.12 21.12ZM19.5 21.12C19.06 21.12 18.65 21.29 18.35 21.6C18.04 21.9 17.87 22.31 17.87 22.75C17.87 23.18 18.04 23.59 18.35 23.89C18.65 24.2 19.06 24.37 19.5 24.37C19.93 24.37 20.34 24.2 20.64 23.89C20.95 23.59 21.12 23.18 21.12 22.75C21.12 22.31 20.95 21.9 20.64 21.6C20.34 21.29 19.93 21.12 19.5 21.12Z" fill="#272727" fill-opacity="1.000000" fill-rule="evenodd"/>
	</g>
</svg>
