<svg width="34.000000" height="34.000000" viewBox="0 0 34 34" fill="none" xmlns="http://www.w3.org/2000/svg" xmlns:xlink="http://www.w3.org/1999/xlink">
	<desc>
			Created with Pixso.
	</desc>
	<defs>
		<clipPath id="clip2_471">
			<rect id="Profile" rx="-0.500000" width="33.000000" height="33.000000" transform="translate(0.500000 0.500000)" fill="white" fill-opacity="0"/>
		</clipPath>
	</defs>
	<rect id="Profile" rx="-0.500000" width="33.000000" height="33.000000" transform="translate(0.500000 0.500000)" fill="#FFFFFF" fill-opacity="0"/>
	<g clip-path="url(#clip2_471)">
		<path id="Vector" d="M27.62 29.75C27.62 29.75 29.75 29.75 29.75 27.62C29.75 25.5 27.62 19.12 17 19.12C6.37 19.12 4.25 25.5 4.25 27.62C4.25 29.75 6.37 29.75 6.37 29.75L27.62 29.75ZM6.38 27.74L6.38 27.73L6.38 27.74ZM6.42 27.62L27.57 27.62C27.58 27.62 27.59 27.62 27.6 27.62L27.62 27.61C27.62 27.09 27.29 25.52 25.85 24.08C24.47 22.69 21.86 21.25 17 21.25C12.13 21.25 9.52 22.69 8.14 24.08C6.7 25.52 6.37 27.09 6.37 27.61C6.39 27.61 6.4 27.62 6.42 27.62ZM27.61 27.74L27.61 27.73L27.61 27.74ZM17 14.87C18.12 14.87 19.2 14.42 20 13.63C20.8 12.83 21.25 11.75 21.25 10.62C21.25 9.49 20.8 8.41 20 7.61C19.2 6.82 18.12 6.37 17 6.37C15.87 6.37 14.79 6.82 13.99 7.61C13.19 8.41 12.75 9.49 12.75 10.62C12.75 11.75 13.19 12.83 13.99 13.63C14.79 14.42 15.87 14.87 17 14.87ZM23.37 10.62C23.37 12.31 22.7 13.93 21.5 15.13C20.31 16.32 18.69 17 17 17C15.3 17 13.68 16.32 12.49 15.13C11.29 13.93 10.62 12.31 10.62 10.62C10.62 8.93 11.29 7.31 12.49 6.11C13.68 4.92 15.3 4.25 17 4.25C18.69 4.25 20.31 4.92 21.5 6.11C22.7 7.31 23.37 8.93 23.37 10.62Z" fill="#272727" fill-opacity="1.000000" fill-rule="evenodd"/>
	</g>
</svg>
